<svg width="27" height="20" viewBox="0 0 27 20" fill="green" xmlns="http://www.w3.org/2000/svg">
<path d="M8.91665 14.1667L22.4375 0.645832C22.8576 0.225694 23.3923 0.015625 24.0416 0.015625C24.691 0.015625 25.2257 0.225694 25.6458 0.645832C26.066 1.06597 26.276 1.60069 26.276 2.25C26.276 2.8993 26.066 3.43403 25.6458 3.85417L10.5208 18.9792C10.0625 19.4375 9.52776 19.6667 8.91665 19.6667C8.30553 19.6667 7.77081 19.4375 7.31248 18.9792L1.35415 13.0208C0.934007 12.6007 0.723938 12.066 0.723938 11.4167C0.723938 10.7674 0.934007 10.2326 1.35415 9.8125C1.77428 9.39236 2.30901 9.18229 2.95831 9.18229C3.60762 9.18229 4.14234 9.39236 4.56248 9.8125L8.91665 14.1667Z" fill="green"/>
</svg>
