<svg width="17" height="17" viewBox="0 0 17 17" fill="none" xmlns="http://www.w3.org/2000/svg">
<path d="M16.4999 16.4999C16.1837 16.8162 15.8112 16.9743 15.3826 16.9743C14.9539 16.9743 14.5822 16.8162 14.2674 16.4999L8.68627 10.9188L3.10509 16.4999C2.78882 16.8162 2.41637 16.9743 1.98774 16.9743C1.5591 16.9743 1.1874 16.8162 0.872618 16.4999C0.556351 16.1837 0.398217 15.8112 0.398217 15.3826C0.398217 14.9539 0.556351 14.5822 0.872618 14.2675L6.4538 8.68628L0.872618 3.1051C0.556351 2.78883 0.398218 2.41638 0.398218 1.98775C0.398218 1.55911 0.556351 1.18741 0.872618 0.872629C1.18888 0.556362 1.56134 0.398229 1.98997 0.398229C2.4186 0.398229 2.79031 0.556362 3.10509 0.872629L8.68627 6.45381L14.2674 0.872629C14.5837 0.556362 14.9562 0.398229 15.3848 0.398229C15.8134 0.398229 16.1851 0.556362 16.4999 0.872629C16.8162 1.1889 16.9743 1.56135 16.9743 1.98998C16.9743 2.41862 16.8162 2.79032 16.4999 3.1051L10.9187 8.68628L16.4999 14.2675C16.8162 14.5837 16.9743 14.9562 16.9743 15.3848C16.9743 15.8134 16.8162 16.1852 16.4999 16.4999Z" fill="#F33232"/>
</svg>
