<svg width="32" height="25" viewBox="0 0 32 25" fill="none" xmlns="http://www.w3.org/2000/svg">
<path d="M31.5465 12.6695C31.5465 12.3968 31.4509 12.13 31.2714 11.9011C31.0918 11.6722 30.8358 11.491 30.5343 11.3793L2.68162 1.01931L2.67758 1.01598C2.35501 0.8977 1.99605 0.864461 1.64971 0.920798C1.30338 0.977135 0.986571 1.1203 0.742549 1.33074C0.498525 1.54119 0.339189 1.80864 0.286302 2.09659C0.233413 2.38453 0.289553 2.67893 0.447052 2.93956L0.461195 2.96206L4.43463 11.1267C4.52882 11.2722 4.66762 11.3947 4.83717 11.4821C5.00672 11.5695 5.20109 11.6186 5.40086 11.6247L26.9022 12.2507C26.9685 12.2507 27.0342 12.2615 27.0955 12.2825C27.1568 12.3034 27.2124 12.3341 27.2593 12.3728C27.3062 12.4115 27.3435 12.4574 27.3688 12.508C27.3942 12.5585 27.4073 12.6127 27.4073 12.6674C27.4073 12.7222 27.3942 12.7764 27.3688 12.8269C27.3434 12.8775 27.3062 12.9234 27.2593 12.9621C27.2124 13.0008 27.1568 13.0315 27.0955 13.0524C27.0342 13.0734 26.9685 13.0842 26.9022 13.0842L5.40537 13.7062C5.20559 13.7122 5.01123 13.7614 4.84168 13.8487C4.67213 13.9361 4.53332 14.0587 4.43912 14.2041L0.462372 22.3731C0.455301 22.3839 0.449238 22.3939 0.443178 22.4047C0.136576 22.9244 0.215361 23.5344 0.687616 23.9607L0.738124 24.0024C0.986329 24.2095 1.30433 24.3503 1.65077 24.4063C1.99721 24.4623 2.35608 24.4311 2.68071 24.3166L30.5272 13.9596C30.83 13.8488 31.0875 13.668 31.2684 13.439C31.4493 13.2101 31.5459 12.9428 31.5465 12.6695Z" fill="#3289F3"/>
</svg>
