<svg width="390" height="302" viewBox="0 0 390 302" fill="none" xmlns="http://www.w3.org/2000/svg">
<g style="mix-blend-mode:overlay" opacity="0.1">
<g filter="url(#filter0_i_48_355)">
<path d="M395.671 175.266L-17.7587 -12.7962L-17.7587 154.242L200.301 283.72L395.671 283.72L395.671 175.266Z" fill="#555555"/>
</g>
<path d="M-17.915 -11.0015L-21.57 -31L412.756 145.91L417.949 188.47L-17.915 -11.0015Z" fill="#FFE898"/>
<g filter="url(#filter1_f_48_355)">
<path d="M262.393 208.557C273.718 205.448 294.415 196.692 301.942 190.014C310.604 183.044 293.22 174.559 291.164 173.294C289.108 172.03 187.847 118.548 170.159 110.22C152.472 101.892 95.41 117.067 81.5017 124.335C70.1648 130.26 77.9534 134.852 79.4133 136.101C80.8731 137.35 165.091 187.147 195.428 202.463C218.403 214.062 240.164 214.66 262.393 208.557Z" fill="black" fill-opacity="0.2"/>
</g>
<path fill-rule="evenodd" clip-rule="evenodd" d="M182.611 153.14L194.089 148.165L194.092 148.171C194.166 148.138 194.24 148.105 194.315 148.074C201.15 145.211 210.616 152.33 215.458 163.973C220.301 175.616 218.685 187.375 211.851 190.237C211.757 190.276 211.664 190.314 211.569 190.349L200.498 195.155L194.764 181.686C193.221 179.53 191.838 177.058 190.707 174.339C189.664 171.831 188.921 169.318 188.465 166.89L182.611 153.14Z" fill="#00131D"/>
<ellipse cx="13.4233" cy="22.804" rx="13.4233" ry="22.804" transform="matrix(-0.921953 0.38611 0.384195 0.923749 195.317 147.856)" fill="#00131D"/>
<g filter="url(#filter2_i_48_355)">
<ellipse cx="10.0679" cy="17.1038" rx="10.0679" ry="17.1038" transform="matrix(-0.921953 0.38611 0.384195 0.923749 194.027 154.419)" fill="url(#paint0_linear_48_355)"/>
</g>
<g filter="url(#filter3_di_48_355)">
<path fill-rule="evenodd" clip-rule="evenodd" d="M193.706 163.183C194.544 163.913 195.354 164.781 196.111 165.768L193.533 169.995L193.706 163.183ZM193.215 182.558L195.901 187.513C195.006 187.707 194.058 187.66 193.092 187.399L193.215 182.558ZM190.822 186.414L191.013 178.902C190.96 178.868 190.907 178.833 190.854 178.796L187.748 183.89C188.729 184.935 189.769 185.787 190.822 186.414ZM191.257 169.28L191.452 161.595C189.518 160.543 187.557 160.265 185.857 160.977C185.383 161.176 184.948 161.443 184.555 161.772L188.693 169.405C188.845 169.278 189.013 169.175 189.196 169.098C189.823 168.835 190.542 168.92 191.257 169.28ZM197.977 186.527L193.902 179.011C194.058 178.887 194.198 178.737 194.322 178.567L200.411 182.304C199.977 184.115 199.157 185.59 197.977 186.527ZM187.989 174.681L183.05 175.875C182.478 174.205 182.118 172.55 181.959 170.981L187.989 174.681ZM183.905 178.031L189.016 176.796C189.079 176.896 189.143 176.993 189.208 177.088L186.204 182.015C185.347 180.833 184.568 179.495 183.905 178.031ZM194.355 173.054L197.522 167.861C198.079 168.797 198.587 169.806 199.032 170.877C199.176 171.222 199.31 171.568 199.436 171.913L194.387 173.134C194.377 173.107 194.366 173.081 194.355 173.054ZM194.942 175.363C194.976 175.677 194.989 175.984 194.981 176.278L200.752 179.819C200.836 178.059 200.63 176.115 200.116 174.112L194.942 175.363ZM187.231 171.522L181.892 168.246C181.991 166.524 182.371 164.984 183.014 163.743L187.231 171.522Z" fill="#4C4C4C"/>
</g>
<path fill-rule="evenodd" clip-rule="evenodd" d="M182.624 152.9L194.102 147.925L194.104 147.928C194.174 147.896 194.246 147.865 194.318 147.835C201.152 144.972 210.619 152.09 215.461 163.734C220.303 175.377 218.688 187.136 211.853 189.998C211.785 190.027 211.716 190.055 211.646 190.082L200.511 194.915L194.792 181.483C193.239 179.318 191.847 176.834 190.71 174.099C189.661 171.577 188.915 169.049 188.459 166.608L182.624 152.9Z" fill="#00131D"/>
<path d="M179.196 179.284C184.034 190.918 193.498 198.029 200.333 195.166C207.168 192.304 208.786 180.552 203.947 168.918C199.108 157.284 189.371 149.547 182.536 152.409C175.701 155.272 174.357 167.65 179.196 179.284Z" fill="#2D2C2C"/>
<g filter="url(#filter4_i_48_355)">
<ellipse cx="9.43568" cy="16.4946" rx="9.43568" ry="16.4946" transform="matrix(-0.918177 0.396377 0.370986 0.928609 193.981 155.051)" fill="url(#paint1_linear_48_355)"/>
</g>
<g filter="url(#filter5_di_48_355)">
<path fill-rule="evenodd" clip-rule="evenodd" d="M188.08 182.092C188.11 182.128 188.139 182.163 188.169 182.198L188.12 182.077L188.08 182.092ZM184.695 176.004C184.102 174.312 183.75 172.633 183.629 171.062L185.515 175.689L184.695 176.004ZM194.391 172.285C193.297 169.877 191.483 168.307 189.944 168.357L187.571 162.537C190.975 161.727 195.336 165.318 197.715 171.01L194.391 172.285ZM199.274 177.799C199.393 181.033 198.506 183.73 196.731 185.002L194.535 179.616L199.274 177.799Z" fill="#A9A8A8"/>
</g>
<path fill-rule="evenodd" clip-rule="evenodd" d="M98.4529 108.086L108.516 105.754L108.517 105.761C108.581 105.745 108.645 105.73 108.71 105.715C114.687 104.408 121.319 111.6 123.523 121.779C125.728 131.959 122.67 141.27 116.693 142.578C116.606 142.597 116.518 142.614 116.431 142.63L106.744 144.881L104.089 133.098C103.153 131.114 102.395 128.896 101.879 126.514C101.403 124.317 101.173 122.161 101.164 120.117L98.4529 108.086Z" fill="#00131D"/>
<ellipse cx="11.0861" cy="18.8301" rx="11.0861" ry="18.8301" transform="matrix(-0.976187 0.213537 0.211819 0.978055 109.547 105.687)" fill="#00131D"/>
<g filter="url(#filter6_i_48_355)">
<ellipse cx="8.31504" cy="14.1233" rx="8.31504" ry="14.1233" transform="matrix(-0.976187 0.213537 0.211819 0.978055 107.529 110.826)" fill="url(#paint2_linear_48_355)"/>
</g>
<g filter="url(#filter7_di_48_355)">
<path fill-rule="evenodd" clip-rule="evenodd" d="M105.96 117.891C106.533 118.609 107.064 119.437 107.532 120.353L104.805 123.409L105.96 117.891ZM102.683 133.556L104.131 137.986C103.375 138.01 102.611 137.83 101.864 137.473L102.683 133.556ZM100.167 136.334L101.437 130.265C101.399 130.23 101.362 130.194 101.325 130.157L98.0487 133.829C98.689 134.822 99.4061 135.668 100.167 136.334ZM103.064 122.485L104.364 116.266C102.95 115.126 101.4 114.609 99.915 114.934C99.4993 115.025 99.1063 115.178 98.7379 115.387L100.965 122.202C101.107 122.122 101.257 122.064 101.416 122.029C101.965 121.909 102.537 122.085 103.064 122.485ZM105.964 137.495L103.77 130.782C103.914 130.704 104.05 130.605 104.174 130.485L108.568 134.43C107.947 135.836 107.061 136.91 105.964 137.495ZM99.6064 126.384L95.4227 126.619C95.2062 125.178 95.159 123.782 95.263 122.485L99.6064 126.384ZM95.7973 128.498L100.127 128.255C100.163 128.347 100.201 128.437 100.241 128.526L97.0731 132.076C96.5526 130.988 96.1179 129.785 95.7973 128.498ZM105.021 126.015L108.368 122.263C108.681 123.107 108.944 124.002 109.147 124.938C109.212 125.24 109.27 125.541 109.321 125.84L105.034 126.08L105.021 126.015ZM105.154 127.974C105.135 128.235 105.099 128.485 105.05 128.723L109.215 132.462C109.545 131.044 109.667 129.433 109.547 127.728L105.154 127.974ZM99.4654 123.71L95.6139 120.253C95.9496 118.868 96.4864 117.672 97.1936 116.759L99.4654 123.71Z" fill="#4C4C4C"/>
</g>
<path fill-rule="evenodd" clip-rule="evenodd" d="M98.4133 108.349L108.476 106.017L108.477 106.019C108.54 106.003 108.604 105.988 108.668 105.974C114.645 104.667 121.277 111.859 123.481 122.038C125.686 132.218 122.628 141.529 116.651 142.837C116.593 142.849 116.536 142.861 116.479 142.872L106.704 145.143L104.05 133.363C103.113 131.378 102.353 129.157 101.837 126.773C101.361 124.574 101.13 122.415 101.122 120.368L98.4133 108.349Z" fill="#00131D"/>
<ellipse cx="11.2093" cy="19.0393" rx="11.2093" ry="19.0393" transform="matrix(-0.976187 0.213537 0.211819 0.978055 109.588 105.494)" fill="#2C2C2C"/>
<g filter="url(#filter8_i_48_355)">
<g filter="url(#filter9_i_48_355)">
<ellipse cx="7.8007" cy="13.6368" rx="7.8007" ry="13.6368" transform="matrix(-0.962889 0.267119 0.280029 0.960737 105.677 112.572)" fill="url(#paint3_linear_48_355)"/>
</g>
<g filter="url(#filter10_di_48_355)">
<path fill-rule="evenodd" clip-rule="evenodd" d="M96.6405 128.183L95.9868 128.306C95.7093 126.931 95.61 125.596 95.6705 124.366L96.6405 128.183ZM107.32 126.167C106.018 121.224 102.834 117.691 99.9276 117.853L101.209 122.895C102.488 123.071 103.809 124.604 104.434 126.712L107.32 126.167ZM107.796 132.059C107.489 134.601 106.452 136.573 104.875 137.322L103.732 132.826L107.796 132.059Z" fill="#A9A8A8"/>
</g>
</g>
<g filter="url(#filter11_ii_48_355)">
<path fill-rule="evenodd" clip-rule="evenodd" d="M247.379 105.829C247.782 106.191 248.209 106.533 248.695 106.772C248.904 106.875 249.101 106.954 249.285 107.009C253.469 108.243 288.263 128.494 295.759 136.467C303.053 144.226 302.523 148.74 302.277 150.835C302.242 151.138 302.212 151.39 302.213 151.595C302.216 152.613 302.157 154.661 302.081 157.266C302.036 158.801 301.986 160.529 301.94 162.354L301.782 168.554C301.756 169.017 301.746 169.49 301.736 169.972C301.693 172.022 301.646 174.25 300.328 176.659C298.704 179.628 290.949 190.472 254.384 200.949C241.984 204.502 227.803 199.845 218.788 195.837C216.192 194.794 214.034 193.784 212.483 193.014C212.283 192.915 212.093 192.801 211.915 192.674C211.45 192.345 211.012 191.971 210.513 191.696C210.211 191.53 210.017 191.22 209.995 190.876C209.801 187.806 209.19 183.621 208.267 179.427C207.162 174.703 205.664 170.011 203.967 166.934C199.982 159.703 191.338 150.691 184.304 152.921C176.321 155.453 176.64 166.849 176.723 169.571C176.748 170.371 176.827 170.906 176.905 171.435C176.905 171.435 176.905 171.435 176.905 171.435C176.905 171.435 176.905 171.435 176.905 171.435C176.925 171.569 176.932 171.7 176.929 171.826C176.921 172.133 176.933 172.443 176.991 172.744C177 172.794 177.009 172.846 177.017 172.902C177.158 173.889 176.021 174.485 175.147 174.005C174.93 173.886 174.683 173.837 174.437 173.809C174.124 173.773 173.807 173.676 173.504 173.511L116.423 142.456C115.745 142.086 115.176 141.557 114.793 140.923C114.751 140.854 114.693 140.796 114.622 140.757C114.505 140.693 114.423 140.578 114.408 140.445C114.392 140.312 114.381 140.178 114.374 140.043C114.37 139.952 114.358 139.862 114.339 139.773C114.296 139.563 114.272 139.347 114.268 139.126C114.252 138.204 114.28 137.207 114.31 136.143C114.444 131.325 114.617 125.131 110.943 118.305C107.584 112.065 102.567 107.864 97.8814 109.204C93.196 110.545 91.8047 115.52 91.4805 118.302C91.1622 121.034 91.2464 123.551 91.2952 125.011L91.2952 125.012C91.3148 125.599 91.3287 126.015 91.3084 126.205C91.2374 126.867 84.6906 120.938 84.3161 118.732C83.1761 112.02 83.0619 105.759 83.9211 98.9969C84.0361 98.0913 84.3784 96.0568 84.6852 94.7485C84.8403 94.0875 84.9394 93.4068 84.9489 92.7279C84.9803 90.4701 85.4383 87.6059 86.0408 86.3243C86.1008 86.1966 86.1595 86.0621 86.2213 85.9208L86.2219 85.9193C86.9448 84.2643 88.0738 81.6797 96.3573 78.2244C108.119 73.3181 140.082 62.5426 141.314 62.303C144.225 61.737 147.926 62.1058 150.923 62.4044C152.681 62.5796 154.196 62.7306 155.167 62.6544C169.188 61.5537 185.35 63.8958 206.467 75.2283C209.3 76.5164 212.097 77.9752 214.8 79.6281C221.549 83.7569 227.214 88.1026 231.915 92.0885C237.403 96.5075 241.622 100.462 244.65 103.302L244.65 103.302C245.702 104.288 246.611 105.139 247.379 105.829Z" fill="url(#paint4_linear_48_355)"/>
</g>
<g filter="url(#filter12_ddi_48_355)">
<path d="M191.219 129.078C183.911 125.833 179.843 116.037 169.614 104.198C168.548 102.964 169.013 101.024 170.541 100.454L216.454 83.3529C216.8 83.2239 217.171 83.1859 217.52 83.3091C219.085 83.8628 224.311 86.3752 236.375 97.5395C243.137 103.797 244.481 105.416 247.993 107.915C248.549 108.311 248.429 109.147 246.31 110.805C239.553 116.093 202.6 134.131 191.219 129.078Z" fill="url(#paint5_linear_48_355)"/>
</g>
<g filter="url(#filter13_di_48_355)">
<path d="M137.403 86.7187C127.261 83.2414 124.631 83.1563 117.583 82.5793C112.733 82.1823 105.004 82.7048 104.107 84.8702C103.21 87.0356 112.372 94.1403 116.181 96.3767C118.044 97.4698 182.368 131.776 180.394 127.864C177.962 123.045 166.559 109.165 162.687 103.517C156.232 94.1011 147.545 90.196 137.403 86.7187Z" fill="url(#paint6_linear_48_355)"/>
</g>
<g filter="url(#filter14_di_48_355)">
<path d="M114.394 79.6928L157.73 63.3104C157.73 63.3104 156.76 63.6249 151.498 63.4139C149.663 63.3402 104.682 80.511 104.35 80.7887L114.394 79.6928Z" fill="url(#paint7_linear_48_355)"/>
</g>
<g filter="url(#filter15_f_48_355)">
<path d="M210.329 153.135C194.051 145.06 185.038 135.212 175.338 126.173C204.668 135.686 266.036 156.432 265.035 157.655C263.784 159.185 259.294 160.923 244.507 161.543C229.949 162.154 212.193 154.06 210.329 153.135Z" fill="url(#paint8_linear_48_355)" fill-opacity="0.21"/>
</g>
<g filter="url(#filter16_f_48_355)">
<path d="M274.866 118.198C273.949 117.404 262.498 104.916 253.846 98.6248C260.764 113.015 276.576 144.312 278.123 144.197C280.057 144.053 288.926 142.624 291.678 136.683C294.388 130.835 276.012 119.189 274.866 118.198Z" fill="url(#paint9_linear_48_355)" fill-opacity="0.13"/>
</g>
<g filter="url(#filter17_di_48_355)">
<path d="M152.294 128.952C152.303 128.572 152.095 128.218 151.757 128.043L147.011 125.584C146.358 125.246 145.578 125.708 145.56 126.443C145.55 126.826 145.76 127.181 146.1 127.357L150.85 129.809C151.5 130.144 152.275 129.684 152.294 128.952Z" fill="#323232"/>
</g>
<g filter="url(#filter18_di_48_355)">
<path d="M121.131 114.24C121.141 113.859 120.932 113.506 120.594 113.331L115.848 110.872C115.196 110.534 114.416 110.996 114.397 111.731C114.387 112.114 114.597 112.469 114.937 112.645L119.687 115.096C120.337 115.432 121.112 114.972 121.131 114.24Z" fill="#323232"/>
</g>
<g filter="url(#filter19_f_48_355)">
<path d="M163.834 165.059L119.281 141.827C118.149 141.237 117.313 140.204 116.983 138.971C115.638 133.948 113.673 126.191 113.668 124.436C113.661 121.935 176.504 153.813 174.134 159.411C174.097 159.498 174.061 159.585 174.026 159.672C172.531 163.368 167.369 166.902 163.834 165.059Z" fill="url(#paint10_linear_48_355)" fill-opacity="0.12"/>
</g>
<path d="M223.483 122.688L186.632 94.3812C182.303 95.4365 172.406 99.5693 170.524 100.222C168.085 101.069 167.671 101.564 167.671 101.564C167.652 102.294 168.016 102.622 169.16 103.792C170.8 105.469 171.493 106.239 175.523 111.663C181.327 119.475 185.71 126.717 190.043 128.538C193.49 129.987 198.889 131.314 206.681 128.96C213.646 126.856 217.963 124.388 223.483 122.688Z" fill="#C4C4C4" fill-opacity="0.2"/>
<g opacity="0.17" filter="url(#filter20_f_48_355)">
<path d="M289.51 146.051C279.075 153.886 256.025 164.881 245.819 166.387" stroke="url(#paint11_linear_48_355)" stroke-width="75.7446" stroke-linecap="round" stroke-linejoin="round"/>
</g>
<g filter="url(#filter21_ddii_48_355)">
<path d="M297.246 149.202C299.205 146.692 298.83 144.615 298.614 141.486C298.59 141.13 298.503 140.776 298.443 140.424C298.163 138.799 301.361 143.953 301.637 147.536C301.734 148.796 301.638 149.431 301.49 150.588C301.423 151.117 300.249 154.33 300.393 155.033C300.538 155.737 300.059 160.549 300.065 161.279C300.071 162.008 296.891 167.353 288.766 172.38C282.016 176.555 272.411 179.165 271.43 179.28C270.449 179.396 269.575 176.093 268.87 175.894C267.025 175.372 261.49 177.248 259.429 177.711C257.025 178.251 251.416 179.495 245.343 178.558C237.832 177.398 236.701 176.512 229.87 172.564C227.486 171.186 225.489 169.166 223.966 167.161C222.011 164.589 224.288 162.242 227.34 163.303C232.609 165.135 240.008 167.425 248.114 168.464C264.701 170.592 278.036 163.021 279.947 161.932C287.978 157.357 292.178 155.696 297.246 149.202Z" fill="#272727"/>
</g>
<mask id="mask0_48_355" style="mask-type:alpha" maskUnits="userSpaceOnUse" x="223" y="146" width="80" height="34">
<path d="M297.246 149.169C297.386 148.989 297.515 148.807 297.633 148.623C299.051 146.413 302.111 145.067 302.443 147.671C302.54 148.931 302.49 149.728 302.343 150.886C302.276 151.415 300.252 154.294 300.397 154.998C300.542 155.702 300.067 160.514 300.073 161.244C300.08 161.973 296.903 167.32 288.781 172.352C282.034 176.532 272.43 179.147 271.45 179.264C270.469 179.38 269.592 176.077 268.887 175.878C267.042 175.358 261.508 177.238 259.448 177.702C257.044 178.244 251.435 179.491 245.362 178.558C237.851 177.403 236.719 176.518 229.885 172.574C227.501 171.198 225.502 169.178 223.978 167.175C222.021 164.603 224.297 162.255 227.349 163.314C232.619 165.143 240.02 167.428 248.127 168.462C264.715 170.579 278.045 163 279.955 161.91C287.984 157.329 292.182 155.666 297.246 149.169Z" fill="#999999"/>
</mask>
<g mask="url(#mask0_48_355)">
<g filter="url(#filter22_d_48_355)">
<path d="M235.412 165.369L254.369 166.136C254.432 166.614 254.433 167.168 254.283 167.711C254.119 168.307 253.757 168.957 252.939 169.538C252.092 170.14 250.67 170.725 248.305 170.981C246.953 171.128 245.037 171.076 243.07 170.651C241.098 170.224 239.196 169.449 237.762 168.245C237.098 167.687 236.225 166.558 235.412 165.369Z" stroke="white" stroke-opacity="0.9" stroke-width="3.41524"/>
</g>
<g filter="url(#filter23_d_48_355)">
<path d="M296.283 147.776L298.204 145.019C298.328 145.927 298.25 146.967 297.717 148.043C297.648 148.182 297.576 148.279 297.519 148.338C297.124 148.027 296.671 147.865 296.283 147.776ZM297.611 148.4C297.611 148.4 297.61 148.4 297.609 148.399L297.611 148.4Z" stroke="white" stroke-opacity="0.9" stroke-width="3.41524"/>
</g>
</g>
</g>
<defs>
<filter id="filter0_i_48_355" x="-17.7587" y="-12.7962" width="413.43" height="367.516" filterUnits="userSpaceOnUse" color-interpolation-filters="sRGB">
<feFlood flood-opacity="0" result="BackgroundImageFix"/>
<feBlend mode="normal" in="SourceGraphic" in2="BackgroundImageFix" result="shape"/>
<feColorMatrix in="SourceAlpha" type="matrix" values="0 0 0 0 0 0 0 0 0 0 0 0 0 0 0 0 0 0 127 0" result="hardAlpha"/>
<feOffset dy="71"/>
<feGaussianBlur stdDeviation="111"/>
<feComposite in2="hardAlpha" operator="arithmetic" k2="-1" k3="1"/>
<feColorMatrix type="matrix" values="0 0 0 0 0 0 0 0 0 0 0 0 0 0 0 0 0 0 0.47 0"/>
<feBlend mode="normal" in2="shape" result="effect1_innerShadow_48_355"/>
</filter>
<filter id="filter1_f_48_355" x="65.4476" y="97.791" width="248.898" height="124.598" filterUnits="userSpaceOnUse" color-interpolation-filters="sRGB">
<feFlood flood-opacity="0" result="BackgroundImageFix"/>
<feBlend mode="normal" in="SourceGraphic" in2="BackgroundImageFix" result="shape"/>
<feGaussianBlur stdDeviation="5" result="effect1_foregroundBlur_48_355"/>
</filter>
<filter id="filter2_i_48_355" x="179.942" y="157.832" width="22.7473" height="32.5493" filterUnits="userSpaceOnUse" color-interpolation-filters="sRGB">
<feFlood flood-opacity="0" result="BackgroundImageFix"/>
<feBlend mode="normal" in="SourceGraphic" in2="BackgroundImageFix" result="shape"/>
<feColorMatrix in="SourceAlpha" type="matrix" values="0 0 0 0 0 0 0 0 0 0 0 0 0 0 0 0 0 0 127 0" result="hardAlpha"/>
<feMorphology radius="1.14765" operator="erode" in="SourceAlpha" result="effect1_innerShadow_48_355"/>
<feOffset/>
<feGaussianBlur stdDeviation="0.573823"/>
<feComposite in2="hardAlpha" operator="arithmetic" k2="-1" k3="1"/>
<feColorMatrix type="matrix" values="0 0 0 0 0 0 0 0 0 0 0 0 0 0 0 0 0 0 0.25 0"/>
<feBlend mode="normal" in2="shape" result="effect1_innerShadow_48_355"/>
</filter>
<filter id="filter3_di_48_355" x="178.449" y="160.353" width="23.0092" height="29.5744" filterUnits="userSpaceOnUse" color-interpolation-filters="sRGB">
<feFlood flood-opacity="0" result="BackgroundImageFix"/>
<feColorMatrix in="SourceAlpha" type="matrix" values="0 0 0 0 0 0 0 0 0 0 0 0 0 0 0 0 0 0 127 0" result="hardAlpha"/>
<feOffset dy="0.459058"/>
<feGaussianBlur stdDeviation="0.344294"/>
<feColorMatrix type="matrix" values="0 0 0 0 1 0 0 0 0 1 0 0 0 0 1 0 0 0 0.41 0"/>
<feBlend mode="normal" in2="BackgroundImageFix" result="effect1_dropShadow_48_355"/>
<feBlend mode="normal" in="SourceGraphic" in2="effect1_dropShadow_48_355" result="shape"/>
<feColorMatrix in="SourceAlpha" type="matrix" values="0 0 0 0 0 0 0 0 0 0 0 0 0 0 0 0 0 0 127 0" result="hardAlpha"/>
<feOffset dx="-3.44294" dy="2.29529"/>
<feGaussianBlur stdDeviation="1.72147"/>
<feComposite in2="hardAlpha" operator="arithmetic" k2="-1" k3="1"/>
<feColorMatrix type="matrix" values="0 0 0 0 0 0 0 0 0 0 0 0 0 0 0 0 0 0 0.25 0"/>
<feBlend mode="normal" in2="shape" result="effect2_innerShadow_48_355"/>
</filter>
<filter id="filter4_i_48_355" x="180.829" y="158.338" width="21.2153" height="31.5415" filterUnits="userSpaceOnUse" color-interpolation-filters="sRGB">
<feFlood flood-opacity="0" result="BackgroundImageFix"/>
<feBlend mode="normal" in="SourceGraphic" in2="BackgroundImageFix" result="shape"/>
<feColorMatrix in="SourceAlpha" type="matrix" values="0 0 0 0 0 0 0 0 0 0 0 0 0 0 0 0 0 0 127 0" result="hardAlpha"/>
<feMorphology radius="2.84604" operator="erode" in="SourceAlpha" result="effect1_innerShadow_48_355"/>
<feOffset/>
<feGaussianBlur stdDeviation="1.42302"/>
<feComposite in2="hardAlpha" operator="arithmetic" k2="-1" k3="1"/>
<feColorMatrix type="matrix" values="0 0 0 0 0 0 0 0 0 0 0 0 0 0 0 0 0 0 0.25 0"/>
<feBlend mode="normal" in2="shape" result="effect1_innerShadow_48_355"/>
</filter>
<filter id="filter5_di_48_355" x="179.989" y="162.181" width="20.5094" height="25.2473" filterUnits="userSpaceOnUse" color-interpolation-filters="sRGB">
<feFlood flood-opacity="0" result="BackgroundImageFix"/>
<feColorMatrix in="SourceAlpha" type="matrix" values="0 0 0 0 0 0 0 0 0 0 0 0 0 0 0 0 0 0 127 0" result="hardAlpha"/>
<feOffset dy="0.970617"/>
<feGaussianBlur stdDeviation="0.606636"/>
<feColorMatrix type="matrix" values="0 0 0 0 1 0 0 0 0 1 0 0 0 0 1 0 0 0 0.59 0"/>
<feBlend mode="normal" in2="BackgroundImageFix" result="effect1_dropShadow_48_355"/>
<feBlend mode="normal" in="SourceGraphic" in2="effect1_dropShadow_48_355" result="shape"/>
<feColorMatrix in="SourceAlpha" type="matrix" values="0 0 0 0 0 0 0 0 0 0 0 0 0 0 0 0 0 0 127 0" result="hardAlpha"/>
<feOffset dx="-3.63981" dy="2.42654"/>
<feGaussianBlur stdDeviation="1.81991"/>
<feComposite in2="hardAlpha" operator="arithmetic" k2="-1" k3="1"/>
<feColorMatrix type="matrix" values="0 0 0 0 0 0 0 0 0 0 0 0 0 0 0 0 0 0 0.25 0"/>
<feBlend mode="normal" in2="shape" result="effect2_innerShadow_48_355"/>
</filter>
<filter id="filter6_i_48_355" x="93.7503" y="112.486" width="17.3062" height="27.8571" filterUnits="userSpaceOnUse" color-interpolation-filters="sRGB">
<feFlood flood-opacity="0" result="BackgroundImageFix"/>
<feBlend mode="normal" in="SourceGraphic" in2="BackgroundImageFix" result="shape"/>
<feColorMatrix in="SourceAlpha" type="matrix" values="0 0 0 0 0 0 0 0 0 0 0 0 0 0 0 0 0 0 127 0" result="hardAlpha"/>
<feMorphology radius="0.947741" operator="erode" in="SourceAlpha" result="effect1_innerShadow_48_355"/>
<feOffset/>
<feGaussianBlur stdDeviation="0.47387"/>
<feComposite in2="hardAlpha" operator="arithmetic" k2="-1" k3="1"/>
<feColorMatrix type="matrix" values="0 0 0 0 0 0 0 0 0 0 0 0 0 0 0 0 0 0 0.25 0"/>
<feBlend mode="normal" in2="shape" result="effect1_innerShadow_48_355"/>
</filter>
<filter id="filter7_di_48_355" x="92.3669" y="114.649" width="17.7938" height="25.2351" filterUnits="userSpaceOnUse" color-interpolation-filters="sRGB">
<feFlood flood-opacity="0" result="BackgroundImageFix"/>
<feColorMatrix in="SourceAlpha" type="matrix" values="0 0 0 0 0 0 0 0 0 0 0 0 0 0 0 0 0 0 127 0" result="hardAlpha"/>
<feOffset dy="0.379096"/>
<feGaussianBlur stdDeviation="0.284322"/>
<feColorMatrix type="matrix" values="0 0 0 0 1 0 0 0 0 1 0 0 0 0 1 0 0 0 0.41 0"/>
<feBlend mode="normal" in2="BackgroundImageFix" result="effect1_dropShadow_48_355"/>
<feBlend mode="normal" in="SourceGraphic" in2="effect1_dropShadow_48_355" result="shape"/>
<feColorMatrix in="SourceAlpha" type="matrix" values="0 0 0 0 0 0 0 0 0 0 0 0 0 0 0 0 0 0 127 0" result="hardAlpha"/>
<feOffset dx="-2.84322" dy="1.89548"/>
<feGaussianBlur stdDeviation="1.42161"/>
<feComposite in2="hardAlpha" operator="arithmetic" k2="-1" k3="1"/>
<feColorMatrix type="matrix" values="0 0 0 0 0 0 0 0 0 0 0 0 0 0 0 0 0 0 0.25 0"/>
<feBlend mode="normal" in2="shape" result="effect2_innerShadow_48_355"/>
</filter>
<filter id="filter8_i_48_355" x="93.5566" y="114.489" width="16.856" height="26.5359" filterUnits="userSpaceOnUse" color-interpolation-filters="sRGB">
<feFlood flood-opacity="0" result="BackgroundImageFix"/>
<feBlend mode="normal" in="SourceGraphic" in2="BackgroundImageFix" result="shape"/>
<feColorMatrix in="SourceAlpha" type="matrix" values="0 0 0 0 0 0 0 0 0 0 0 0 0 0 0 0 0 0 127 0" result="hardAlpha"/>
<feMorphology radius="2.84604" operator="erode" in="SourceAlpha" result="effect1_innerShadow_48_355"/>
<feOffset/>
<feGaussianBlur stdDeviation="1.42302"/>
<feComposite in2="hardAlpha" operator="arithmetic" k2="-1" k3="1"/>
<feColorMatrix type="matrix" values="0 0 0 0 0 0 0 0 0 0 0 0 0 0 0 0 0 0 0.25 0"/>
<feBlend mode="normal" in2="shape" result="effect1_innerShadow_48_355"/>
</filter>
<filter id="filter9_i_48_355" x="93.5566" y="114.489" width="16.856" height="26.5359" filterUnits="userSpaceOnUse" color-interpolation-filters="sRGB">
<feFlood flood-opacity="0" result="BackgroundImageFix"/>
<feBlend mode="normal" in="SourceGraphic" in2="BackgroundImageFix" result="shape"/>
<feColorMatrix in="SourceAlpha" type="matrix" values="0 0 0 0 0 0 0 0 0 0 0 0 0 0 0 0 0 0 127 0" result="hardAlpha"/>
<feMorphology radius="0.852955" operator="erode" in="SourceAlpha" result="effect1_innerShadow_48_355"/>
<feOffset/>
<feGaussianBlur stdDeviation="0.426477"/>
<feComposite in2="hardAlpha" operator="arithmetic" k2="-1" k3="1"/>
<feColorMatrix type="matrix" values="0 0 0 0 0 0 0 0 0 0 0 0 0 0 0 0 0 0 0.25 0"/>
<feBlend mode="normal" in2="shape" result="effect1_innerShadow_48_355"/>
</filter>
<filter id="filter10_di_48_355" x="92.0136" y="117.605" width="16.9957" height="22.1436" filterUnits="userSpaceOnUse" color-interpolation-filters="sRGB">
<feFlood flood-opacity="0" result="BackgroundImageFix"/>
<feColorMatrix in="SourceAlpha" type="matrix" values="0 0 0 0 0 0 0 0 0 0 0 0 0 0 0 0 0 0 127 0" result="hardAlpha"/>
<feOffset dy="0.970618"/>
<feGaussianBlur stdDeviation="0.606636"/>
<feColorMatrix type="matrix" values="0 0 0 0 1 0 0 0 0 1 0 0 0 0 1 0 0 0 0.59 0"/>
<feBlend mode="normal" in2="BackgroundImageFix" result="effect1_dropShadow_48_355"/>
<feBlend mode="normal" in="SourceGraphic" in2="effect1_dropShadow_48_355" result="shape"/>
<feColorMatrix in="SourceAlpha" type="matrix" values="0 0 0 0 0 0 0 0 0 0 0 0 0 0 0 0 0 0 127 0" result="hardAlpha"/>
<feOffset dx="-3.63982" dy="2.42654"/>
<feGaussianBlur stdDeviation="1.81991"/>
<feComposite in2="hardAlpha" operator="arithmetic" k2="-1" k3="1"/>
<feColorMatrix type="matrix" values="0 0 0 0 0 0 0 0 0 0 0 0 0 0 0 0 0 0 0.25 0"/>
<feBlend mode="normal" in2="shape" result="effect2_innerShadow_48_355"/>
</filter>
<filter id="filter11_ii_48_355" x="83.3567" y="39.2393" width="236.114" height="162.973" filterUnits="userSpaceOnUse" color-interpolation-filters="sRGB">
<feFlood flood-opacity="0" result="BackgroundImageFix"/>
<feBlend mode="normal" in="SourceGraphic" in2="BackgroundImageFix" result="shape"/>
<feColorMatrix in="SourceAlpha" type="matrix" values="0 0 0 0 0 0 0 0 0 0 0 0 0 0 0 0 0 0 127 0" result="hardAlpha"/>
<feOffset dx="17.0762" dy="-22.7683"/>
<feGaussianBlur stdDeviation="68.3049"/>
<feComposite in2="hardAlpha" operator="arithmetic" k2="-1" k3="1"/>
<feColorMatrix type="matrix" values="0 0 0 0 0 0 0 0 0 0 0 0 0 0 0 0 0 0 0.07 0"/>
<feBlend mode="normal" in2="shape" result="effect1_innerShadow_48_355"/>
<feColorMatrix in="SourceAlpha" type="matrix" values="0 0 0 0 0 0 0 0 0 0 0 0 0 0 0 0 0 0 127 0" result="hardAlpha"/>
<feOffset dy="-2.84604"/>
<feGaussianBlur stdDeviation="5.69207"/>
<feComposite in2="hardAlpha" operator="arithmetic" k2="-1" k3="1"/>
<feColorMatrix type="matrix" values="0 0 0 0 0 0 0 0 0 0 0 0 0 0 0 0 0 0 0.09 0"/>
<feBlend mode="normal" in2="effect1_innerShadow_48_355" result="effect2_innerShadow_48_355"/>
</filter>
<filter id="filter12_ddi_48_355" x="164.445" y="79.791" width="86.1258" height="53.6134" filterUnits="userSpaceOnUse" color-interpolation-filters="sRGB">
<feFlood flood-opacity="0" result="BackgroundImageFix"/>
<feColorMatrix in="SourceAlpha" type="matrix" values="0 0 0 0 0 0 0 0 0 0 0 0 0 0 0 0 0 0 127 0" result="hardAlpha"/>
<feOffset dx="-2.29529" dy="1.14765"/>
<feGaussianBlur stdDeviation="1.14765"/>
<feColorMatrix type="matrix" values="0 0 0 0 1 0 0 0 0 1 0 0 0 0 1 0 0 0 0.28 0"/>
<feBlend mode="normal" in2="BackgroundImageFix" result="effect1_dropShadow_48_355"/>
<feColorMatrix in="SourceAlpha" type="matrix" values="0 0 0 0 0 0 0 0 0 0 0 0 0 0 0 0 0 0 127 0" result="hardAlpha"/>
<feOffset dy="-1.14765"/>
<feGaussianBlur stdDeviation="1.14765"/>
<feColorMatrix type="matrix" values="0 0 0 0 1 0 0 0 0 1 0 0 0 0 1 0 0 0 0.56 0"/>
<feBlend mode="normal" in2="effect1_dropShadow_48_355" result="effect2_dropShadow_48_355"/>
<feBlend mode="normal" in="SourceGraphic" in2="effect2_dropShadow_48_355" result="shape"/>
<feColorMatrix in="SourceAlpha" type="matrix" values="0 0 0 0 0 0 0 0 0 0 0 0 0 0 0 0 0 0 127 0" result="hardAlpha"/>
<feOffset dx="-1.14765" dy="3.44294"/>
<feGaussianBlur stdDeviation="1.72147"/>
<feComposite in2="hardAlpha" operator="arithmetic" k2="-1" k3="1"/>
<feColorMatrix type="matrix" values="0 0 0 0 0 0 0 0 0 0 0 0 0 0 0 0 0 0 0.75 0"/>
<feBlend mode="normal" in2="shape" result="effect3_innerShadow_48_355"/>
</filter>
<filter id="filter13_di_48_355" x="99.4552" y="82.4572" width="82.1699" height="50.3081" filterUnits="userSpaceOnUse" color-interpolation-filters="sRGB">
<feFlood flood-opacity="0" result="BackgroundImageFix"/>
<feColorMatrix in="SourceAlpha" type="matrix" values="0 0 0 0 0 0 0 0 0 0 0 0 0 0 0 0 0 0 127 0" result="hardAlpha"/>
<feOffset dy="1.18682"/>
<feGaussianBlur stdDeviation="0.593408"/>
<feColorMatrix type="matrix" values="0 0 0 0 0.925374 0 0 0 0 0.925374 0 0 0 0 0.925374 0 0 0 0.37 0"/>
<feBlend mode="normal" in2="BackgroundImageFix" result="effect1_dropShadow_48_355"/>
<feBlend mode="normal" in="SourceGraphic" in2="effect1_dropShadow_48_355" result="shape"/>
<feColorMatrix in="SourceAlpha" type="matrix" values="0 0 0 0 0 0 0 0 0 0 0 0 0 0 0 0 0 0 127 0" result="hardAlpha"/>
<feOffset dx="-4.59058" dy="5.73823"/>
<feGaussianBlur stdDeviation="2.29529"/>
<feComposite in2="hardAlpha" operator="arithmetic" k2="-1" k3="1"/>
<feColorMatrix type="matrix" values="0 0 0 0 0 0 0 0 0 0 0 0 0 0 0 0 0 0 0.8 0"/>
<feBlend mode="normal" in2="shape" result="effect2_innerShadow_48_355"/>
</filter>
<filter id="filter14_di_48_355" x="99.7592" y="63.3104" width="59.1573" height="22.0689" filterUnits="userSpaceOnUse" color-interpolation-filters="sRGB">
<feFlood flood-opacity="0" result="BackgroundImageFix"/>
<feColorMatrix in="SourceAlpha" type="matrix" values="0 0 0 0 0 0 0 0 0 0 0 0 0 0 0 0 0 0 127 0" result="hardAlpha"/>
<feOffset dy="1.18682"/>
<feGaussianBlur stdDeviation="0.593408"/>
<feColorMatrix type="matrix" values="0 0 0 0 0.925374 0 0 0 0 0.925374 0 0 0 0 0.925374 0 0 0 0.37 0"/>
<feBlend mode="normal" in2="BackgroundImageFix" result="effect1_dropShadow_48_355"/>
<feBlend mode="normal" in="SourceGraphic" in2="effect1_dropShadow_48_355" result="shape"/>
<feColorMatrix in="SourceAlpha" type="matrix" values="0 0 0 0 0 0 0 0 0 0 0 0 0 0 0 0 0 0 127 0" result="hardAlpha"/>
<feOffset dx="-4.59058" dy="5.73823"/>
<feGaussianBlur stdDeviation="2.29529"/>
<feComposite in2="hardAlpha" operator="arithmetic" k2="-1" k3="1"/>
<feColorMatrix type="matrix" values="0 0 0 0 0 0 0 0 0 0 0 0 0 0 0 0 0 0 0.8 0"/>
<feBlend mode="normal" in2="shape" result="effect2_innerShadow_48_355"/>
</filter>
<filter id="filter15_f_48_355" x="143.204" y="94.0393" width="153.977" height="99.671" filterUnits="userSpaceOnUse" color-interpolation-filters="sRGB">
<feFlood flood-opacity="0" result="BackgroundImageFix"/>
<feBlend mode="normal" in="SourceGraphic" in2="BackgroundImageFix" result="shape"/>
<feGaussianBlur stdDeviation="16.067" result="effect1_foregroundBlur_48_355"/>
</filter>
<filter id="filter16_f_48_355" x="233.188" y="77.9672" width="79.4201" height="86.8876" filterUnits="userSpaceOnUse" color-interpolation-filters="sRGB">
<feFlood flood-opacity="0" result="BackgroundImageFix"/>
<feBlend mode="normal" in="SourceGraphic" in2="BackgroundImageFix" result="shape"/>
<feGaussianBlur stdDeviation="10.3288" result="effect1_foregroundBlur_48_355"/>
</filter>
<filter id="filter17_di_48_355" x="144.99" y="124.333" width="7.87297" height="8.43321" filterUnits="userSpaceOnUse" color-interpolation-filters="sRGB">
<feFlood flood-opacity="0" result="BackgroundImageFix"/>
<feColorMatrix in="SourceAlpha" type="matrix" values="0 0 0 0 0 0 0 0 0 0 0 0 0 0 0 0 0 0 127 0" result="hardAlpha"/>
<feOffset dy="-0.569207"/>
<feGaussianBlur stdDeviation="0.284604"/>
<feColorMatrix type="matrix" values="0 0 0 0 0.78755 0 0 0 0 0.78755 0 0 0 0 0.78755 0 0 0 0.19 0"/>
<feBlend mode="normal" in2="BackgroundImageFix" result="effect1_dropShadow_48_355"/>
<feBlend mode="normal" in="SourceGraphic" in2="effect1_dropShadow_48_355" result="shape"/>
<feColorMatrix in="SourceAlpha" type="matrix" values="0 0 0 0 0 0 0 0 0 0 0 0 0 0 0 0 0 0 127 0" result="hardAlpha"/>
<feOffset dy="2.84604"/>
<feGaussianBlur stdDeviation="1.42302"/>
<feComposite in2="hardAlpha" operator="arithmetic" k2="-1" k3="1"/>
<feColorMatrix type="matrix" values="0 0 0 0 0 0 0 0 0 0 0 0 0 0 0 0 0 0 0.74 0"/>
<feBlend mode="normal" in2="shape" result="effect2_innerShadow_48_355"/>
</filter>
<filter id="filter18_di_48_355" x="113.828" y="109.621" width="7.87297" height="8.43321" filterUnits="userSpaceOnUse" color-interpolation-filters="sRGB">
<feFlood flood-opacity="0" result="BackgroundImageFix"/>
<feColorMatrix in="SourceAlpha" type="matrix" values="0 0 0 0 0 0 0 0 0 0 0 0 0 0 0 0 0 0 127 0" result="hardAlpha"/>
<feOffset dy="-0.569207"/>
<feGaussianBlur stdDeviation="0.284604"/>
<feColorMatrix type="matrix" values="0 0 0 0 0.78755 0 0 0 0 0.78755 0 0 0 0 0.78755 0 0 0 0.19 0"/>
<feBlend mode="normal" in2="BackgroundImageFix" result="effect1_dropShadow_48_355"/>
<feBlend mode="normal" in="SourceGraphic" in2="effect1_dropShadow_48_355" result="shape"/>
<feColorMatrix in="SourceAlpha" type="matrix" values="0 0 0 0 0 0 0 0 0 0 0 0 0 0 0 0 0 0 127 0" result="hardAlpha"/>
<feOffset dy="2.84604"/>
<feGaussianBlur stdDeviation="1.42302"/>
<feComposite in2="hardAlpha" operator="arithmetic" k2="-1" k3="1"/>
<feColorMatrix type="matrix" values="0 0 0 0 0 0 0 0 0 0 0 0 0 0 0 0 0 0 0.74 0"/>
<feBlend mode="normal" in2="shape" result="effect2_innerShadow_48_355"/>
</filter>
<filter id="filter19_f_48_355" x="106.782" y="117.411" width="74.3027" height="55.0383" filterUnits="userSpaceOnUse" color-interpolation-filters="sRGB">
<feFlood flood-opacity="0" result="BackgroundImageFix"/>
<feBlend mode="normal" in="SourceGraphic" in2="BackgroundImageFix" result="shape"/>
<feGaussianBlur stdDeviation="3.44294" result="effect1_foregroundBlur_48_355"/>
</filter>
<filter id="filter20_f_48_355" x="196.465" y="96.6997" width="142.396" height="119.042" filterUnits="userSpaceOnUse" color-interpolation-filters="sRGB">
<feFlood flood-opacity="0" result="BackgroundImageFix"/>
<feBlend mode="normal" in="SourceGraphic" in2="BackgroundImageFix" result="shape"/>
<feGaussianBlur stdDeviation="5.73823" result="effect1_foregroundBlur_48_355"/>
</filter>
<filter id="filter21_ddii_48_355" x="221.81" y="137.973" width="81.2947" height="51.1562" filterUnits="userSpaceOnUse" color-interpolation-filters="sRGB">
<feFlood flood-opacity="0" result="BackgroundImageFix"/>
<feColorMatrix in="SourceAlpha" type="matrix" values="0 0 0 0 0 0 0 0 0 0 0 0 0 0 0 0 0 0 127 0" result="hardAlpha"/>
<feOffset dy="1.07131"/>
<feGaussianBlur stdDeviation="0.714204"/>
<feColorMatrix type="matrix" values="0 0 0 0 0 0 0 0 0 0 0 0 0 0 0 0 0 0 0.57 0"/>
<feBlend mode="normal" in2="BackgroundImageFix" result="effect1_dropShadow_48_355"/>
<feColorMatrix in="SourceAlpha" type="matrix" values="0 0 0 0 0 0 0 0 0 0 0 0 0 0 0 0 0 0 127 0" result="hardAlpha"/>
<feOffset dy="-0.714204"/>
<feGaussianBlur stdDeviation="0.714204"/>
<feColorMatrix type="matrix" values="0 0 0 0 0 0 0 0 0 0 0 0 0 0 0 0 0 0 1 0"/>
<feBlend mode="normal" in2="effect1_dropShadow_48_355" result="effect2_dropShadow_48_355"/>
<feBlend mode="normal" in="SourceGraphic" in2="effect2_dropShadow_48_355" result="shape"/>
<feColorMatrix in="SourceAlpha" type="matrix" values="0 0 0 0 0 0 0 0 0 0 0 0 0 0 0 0 0 0 127 0" result="hardAlpha"/>
<feOffset dy="9.84614"/>
<feGaussianBlur stdDeviation="10.0343"/>
<feComposite in2="hardAlpha" operator="arithmetic" k2="-1" k3="1"/>
<feColorMatrix type="matrix" values="0 0 0 0 0 0 0 0 0 0 0 0 0 0 0 0 0 0 1 0"/>
<feBlend mode="normal" in2="shape" result="effect3_innerShadow_48_355"/>
<feColorMatrix in="SourceAlpha" type="matrix" values="0 0 0 0 0 0 0 0 0 0 0 0 0 0 0 0 0 0 127 0" result="hardAlpha"/>
<feOffset dy="-1.07294"/>
<feGaussianBlur stdDeviation="1.07294"/>
<feComposite in2="hardAlpha" operator="arithmetic" k2="-1" k3="1"/>
<feColorMatrix type="matrix" values="0 0 0 0 0 0 0 0 0 0 0 0 0 0 0 0 0 0 1 0"/>
<feBlend mode="normal" in2="effect3_innerShadow_48_355" result="effect4_innerShadow_48_355"/>
</filter>
<filter id="filter22_d_48_355" x="231.96" y="163.531" width="26.7089" height="12.0597" filterUnits="userSpaceOnUse" color-interpolation-filters="sRGB">
<feFlood flood-opacity="0" result="BackgroundImageFix"/>
<feColorMatrix in="SourceAlpha" type="matrix" values="0 0 0 0 0 0 0 0 0 0 0 0 0 0 0 0 0 0 127 0" result="hardAlpha"/>
<feOffset dx="1.13841" dy="1.41412"/>
<feGaussianBlur stdDeviation="0.707062"/>
<feColorMatrix type="matrix" values="0 0 0 0 1 0 0 0 0 1 0 0 0 0 1 0 0 0 0.24 0"/>
<feBlend mode="normal" in2="BackgroundImageFix" result="effect1_dropShadow_48_355"/>
<feBlend mode="normal" in="SourceGraphic" in2="effect1_dropShadow_48_355" result="shape"/>
</filter>
<filter id="filter23_d_48_355" x="292.713" y="141.426" width="9.80188" height="11.4987" filterUnits="userSpaceOnUse" color-interpolation-filters="sRGB">
<feFlood flood-opacity="0" result="BackgroundImageFix"/>
<feColorMatrix in="SourceAlpha" type="matrix" values="0 0 0 0 0 0 0 0 0 0 0 0 0 0 0 0 0 0 127 0" result="hardAlpha"/>
<feOffset dx="1.13841" dy="1.41412"/>
<feGaussianBlur stdDeviation="0.707062"/>
<feColorMatrix type="matrix" values="0 0 0 0 1 0 0 0 0 1 0 0 0 0 1 0 0 0 0.24 0"/>
<feBlend mode="normal" in2="BackgroundImageFix" result="effect1_dropShadow_48_355"/>
<feBlend mode="normal" in="SourceGraphic" in2="effect1_dropShadow_48_355" result="shape"/>
</filter>
<linearGradient id="paint0_linear_48_355" x1="23.748" y1="26.0915" x2="24.9307" y2="8.50186" gradientUnits="userSpaceOnUse">
<stop stop-color="#3F3F3F"/>
<stop offset="1" stop-color="#5C5C5C"/>
</linearGradient>
<linearGradient id="paint1_linear_48_355" x1="22.2567" y1="25.1622" x2="23.43" y2="8.20354" gradientUnits="userSpaceOnUse">
<stop stop-color="#AAAAAA"/>
<stop offset="1" stop-color="#C2C2C2"/>
</linearGradient>
<linearGradient id="paint2_linear_48_355" x1="19.6133" y1="21.5448" x2="20.5897" y2="7.02031" gradientUnits="userSpaceOnUse">
<stop stop-color="#3F3F3F"/>
<stop offset="1" stop-color="#5C5C5C"/>
</linearGradient>
<linearGradient id="paint3_linear_48_355" x1="18.4002" y1="20.8026" x2="19.3702" y2="6.78219" gradientUnits="userSpaceOnUse">
<stop stop-color="#AAAAAA"/>
<stop offset="1" stop-color="#C2C2C2"/>
</linearGradient>
<linearGradient id="paint4_linear_48_355" x1="205.171" y1="194.761" x2="309.109" y2="74.4679" gradientUnits="userSpaceOnUse">
<stop stop-color="#D8D8D8"/>
<stop offset="1" stop-color="white"/>
</linearGradient>
<linearGradient id="paint5_linear_48_355" x1="218.516" y1="41.5059" x2="159.695" y2="94.391" gradientUnits="userSpaceOnUse">
<stop stop-color="#E8EAE9"/>
<stop offset="0.498386" stop-color="#707072"/>
<stop offset="1" stop-color="#2F3032"/>
</linearGradient>
<linearGradient id="paint6_linear_48_355" x1="119.592" y1="221.17" x2="177.017" y2="122.274" gradientUnits="userSpaceOnUse">
<stop stop-color="#E8EAE9"/>
<stop offset="0.498386" stop-color="#707072"/>
<stop offset="1" stop-color="#2F3032"/>
</linearGradient>
<linearGradient id="paint7_linear_48_355" x1="98.8164" y1="116.927" x2="130.553" y2="72.9255" gradientUnits="userSpaceOnUse">
<stop stop-color="#E8EAE9"/>
<stop offset="0.498386" stop-color="#707072"/>
<stop offset="1" stop-color="#2F3032"/>
</linearGradient>
<linearGradient id="paint8_linear_48_355" x1="216.669" y1="162.876" x2="224.328" y2="142.218" gradientUnits="userSpaceOnUse">
<stop stop-color="#ECEAEA"/>
<stop offset="1" stop-color="white" stop-opacity="0"/>
</linearGradient>
<linearGradient id="paint9_linear_48_355" x1="298.616" y1="127.805" x2="271.48" y2="136.508" gradientUnits="userSpaceOnUse">
<stop stop-color="#ECEAEA"/>
<stop offset="1" stop-color="white" stop-opacity="0"/>
</linearGradient>
<linearGradient id="paint10_linear_48_355" x1="152.615" y1="164.825" x2="161.146" y2="147.813" gradientUnits="userSpaceOnUse">
<stop stop-color="#040404"/>
<stop offset="1" stop-color="#3C3C3C" stop-opacity="0"/>
</linearGradient>
<linearGradient id="paint11_linear_48_355" x1="268.061" y1="166.724" x2="263.491" y2="157.255" gradientUnits="userSpaceOnUse">
<stop stop-color="#4B4B4B"/>
<stop offset="0.899322" stop-opacity="0"/>
</linearGradient>
</defs>
</svg>
